<svg width="99" height="126" viewBox="0 0 99 126" fill="none" xmlns="http://www.w3.org/2000/svg">
<circle cx="49.5" cy="48.5" r="48.5" fill="white"/>
<rect x="1" y="54" width="97" height="54" fill="white"/>
<path d="M1.00001 108C1.00001 108 1.00001 116.286 1.00001 121.5C0.999998 126.714 21.1097 125.211 21.1097 108C11.8705 108 1.00001 108 1.00001 108Z" fill="white"/>
<path d="M21.1097 108C21.1097 125.211 37.6707 125.211 37.6707 125.211C37.6707 125.211 51.1282 120.465 54.2317 108C54.2317 108 34.1219 108 21.1097 108Z" fill="white"/>
<path d="M54.2317 108C56.5974 125.211 69.6097 125.211 69.6097 125.211C69.6097 125.211 77.8901 125.211 80.256 108C63.695 108 54.2317 108 54.2317 108Z" fill="white"/>
<path d="M80.256 108C79.073 125.211 98 125.211 98 125.211V108H80.256Z" fill="white"/>
<path d="M1.00001 108C1.00001 108 1.00001 116.286 1.00001 121.5C0.999998 126.714 21.1097 125.211 21.1097 108M1.00001 108H98M1.00001 108C1.00001 108 11.8705 108 21.1097 108M21.1097 108C21.1097 125.211 37.6707 125.211 37.6707 125.211C37.6707 125.211 51.1282 120.465 54.2317 108M21.1097 108C34.1219 108 54.2317 108 54.2317 108M54.2317 108C56.5974 125.211 69.6097 125.211 69.6097 125.211C69.6097 125.211 77.8901 125.211 80.256 108M54.2317 108C54.2317 108 63.695 108 80.256 108M80.256 108C79.073 125.211 98 125.211 98 125.211V108M80.256 108H98" stroke="white"/>
<circle cx="28" cy="47" r="6" fill="black"/>
<path d="M77.5 47.3458C77.5 50.6595 75.0376 53.3458 72 53.3458C68.9624 53.3458 66.5 50.6595 66.5 47.3458C66.5 44.0321 68.9624 41.3458 72 41.3458C75.0376 41.3458 77.5 44.0321 77.5 47.3458Z" fill="black"/>
<path d="M40 57C40 57 49 68.5001 62 57" stroke="black" stroke-width="3"/>
</svg>
